<?xml version="1.0" encoding="utf-8"?>
<!-- Generator: Adobe Illustrator 23.0.1, SVG Export Plug-In . SVG Version: 6.00 Build 0)  -->
<svg version="1.1" id="Layer_1" xmlns="http://www.w3.org/2000/svg" xmlns:xlink="http://www.w3.org/1999/xlink" x="0px" y="0px"
	 viewBox="0 0 278.4 50.2" style="enable-background:new 0 0 278.4 50.2;" xml:space="preserve">
<style type="text/css">
	.st0{fill:#FFFFFF;}
</style>
<title>Asset 8</title>
<g>
	<g id="Insomniac">
		<path class="st0" d="M0,12.9h10v26.4H0V12.9z"/>
		<path class="st0" d="M14.9,12.9h10.2l0.1,2.9c0.9-1.2,2.1-2.1,3.4-2.8c1.5-0.7,3.2-1,4.9-1c2.4-0.1,4.7,0.7,6.6,2.2
			c2.2,1.8,3.5,4.6,3.3,7.4v17.7h-10V24.1c0-2.1-0.4-3.7-1.2-4.6c-0.7-0.8-1.8-1.2-2.9-1.2c-1.1,0-2.2,0.4-2.9,1.2
			c-0.9,1-1.3,2.3-1.2,3.6v16.2H14.9"/>
		<path class="st0" d="M48.3,30.7h9.5c0,0.9,0.3,1.9,0.9,2.6c0.6,0.6,1.4,1,2.3,1c0.8,0.1,1.5,0,2.2-0.3c0.7-0.3,0.9-1.1,1.1-2
			c0-0.7-0.4-1.4-1-1.8c-0.9-0.7-2-1.1-3.2-1.3c-2.7-0.7-5.4-1.5-8-2.6c-2.3-1.1-3.7-3.5-3.5-6c0-2.3,1-4.4,2.8-5.7
			c2.1-1.7,5.3-2.5,9.4-2.5c5,0,8.5,1.2,10.6,3.5c1.3,1.5,2,3.5,1.9,5.5h-9.5c0.1-0.9-0.2-1.8-0.8-2.5c-0.7-0.5-1.5-0.7-2.4-0.6
			c-0.8,0-1.7,0.2-2.4,0.7c-0.4,0.4-0.6,1-0.5,1.6c0,0.6,0.6,1,1.1,1.3c0.8,0.4,1.7,0.6,2.5,0.8l6.3,1.5c1.6,0.4,3.2,1.2,4.4,2.4
			c1.2,1.4,1.8,3.3,1.6,5.1c0.1,2.7-1.2,5.2-3.4,6.6c-2.3,1.5-5.5,2.3-9.6,2.3h-0.4c-4.6,0-7.9-0.9-9.8-2.8
			C49.1,35.9,48.3,33.7,48.3,30.7z"/>
		<path class="st0" d="M118.5,12.9h9.8l0.2,4.3c0.8-1.6,2.1-3,3.7-3.8c1.7-0.8,3.5-1.2,5.3-1.2c1.7,0,3.5,0.4,5,1.2
			c1.5,0.8,2.6,2.1,3.2,3.6c0.8-1.3,1.9-2.5,3.2-3.3c1.8-1.2,3.9-1.9,6.1-1.9c2.7-0.1,5.2,0.9,7.2,2.6c1.9,1.8,2.9,4.3,2.9,6.8v17.8
			h-10V24c0.1-1.5-0.3-3-1.1-4.3c-0.7-0.9-1.8-1.3-2.9-1.3c-1-0.1-2.1,0.3-2.8,1c-0.9,1-1.4,2.3-1.3,3.7v16.2H137V24.1
			c0.1-1.6-0.3-3.2-1.2-4.6c-0.7-0.8-1.8-1.2-2.8-1.2c-1.2-0.1-2.3,0.4-3.1,1.2c-0.8,1-1.2,2.3-1.1,3.5v16.2h-10.3"/>
		<path class="st0" d="M170.1,12.9h10.2l0.1,2.9c0.9-1.2,2.1-2.1,3.4-2.8c1.5-0.7,3.2-1,4.9-1c2.4-0.1,4.7,0.7,6.6,2.2
			c2.2,1.8,3.5,4.6,3.3,7.4v17.7h-10V24.1c0-2.1-0.4-3.7-1.2-4.6c-0.7-0.8-1.8-1.2-2.9-1.2c-1.1,0-2.2,0.4-2.9,1.2
			c-0.9,1-1.3,2.3-1.2,3.6v16.2h-10.3"/>
		<path class="st0" d="M203.5,12.9h10v26.4h-10V12.9z"/>
		<path class="st0" d="M236.2,35.8c-0.7,1.1-1.7,2.1-2.8,2.9c-1.5,1-3.3,1.5-5.1,1.5c-3.5,0-6.1-0.9-7.8-2.6
			c-1.4-1.5-2.2-3.6-2.1-5.7v-0.9c-0.1-3,1.7-5.7,4.5-6.8c2.5-1.2,6.1-1.8,10.8-1.8h2.5v-1.2c0.1-1.1-0.1-2.2-0.6-3.2
			c-0.6-0.9-1.6-1.4-2.6-1.3c-1.1-0.1-2.2,0.4-2.8,1.3c-0.5,0.8-0.7,1.8-0.7,2.7H220c-0.1-2.8,1.4-5.4,3.9-6.7c2.3-1.3,5.5-2,9.5-2
			c3-0.1,6,0.6,8.7,2.1c2,1.4,3.2,3.5,3.4,5.9v19.3h-9.3 M236.2,26.7c-1.7-0.1-3.4,0.1-5.1,0.6c-1.8,0.6-3,1.5-3,3.5
			c0,0.9,0.3,1.8,0.8,2.5c0.7,0.7,1.7,1.1,2.7,1c1.7-0.2,3.1-1.2,3.8-2.7C236,30.1,236.3,28.4,236.2,26.7L236.2,26.7z"/>
		<path class="st0" d="M268.5,29h9.9c0.1,3.4-1.5,6.6-4.4,8.5c-2.8,1.9-6,2.8-9.4,2.7h-0.5c-5.5,0-9.3-1.7-11.5-5.1
			c-1.6-2.7-2.3-5.8-2.2-8.9c0-4.4,1.3-7.8,3.8-10.3c2.5-2.5,5.9-3.7,10.1-3.7c3.2-0.1,6.3,0.5,9.2,1.8c3.2,1.5,5.1,4.8,4.9,8.3
			h-9.9c0.1-1.3-0.3-2.5-1.2-3.5c-0.8-0.6-1.9-0.9-2.9-0.8c-1.3,0-2.5,0.8-2.9,2c-0.7,1.7-1,3.6-0.9,5.4v1.5
			c-0.1,1.8,0.2,3.6,0.8,5.2c0.7,1.6,1.7,2.4,3.1,2.4c1.1,0.1,2.2-0.4,2.9-1.3C268.3,31.9,268.6,30.5,268.5,29z"/>
		<path class="st0" d="M5.1,0C3.7,0,2.5,0.4,1.5,1.3C0.6,2.2,0,3.4,0.1,4.7C0,5.9,0.6,7.1,1.5,8c1,0.9,2.2,1.4,3.6,1.3
			c1.3,0,2.5-0.4,3.5-1.3c1-0.8,1.5-2.1,1.5-3.3c0-1.3-0.5-2.5-1.5-3.3C7.6,0.5,6.3,0,5.1,0z"/>
		<path class="st0" d="M208.5,0c-1.3,0-2.6,0.4-3.6,1.3c-0.9,0.9-1.5,2.1-1.4,3.3c0,1.3,0.5,2.5,1.4,3.3c1,0.9,2.2,1.4,3.6,1.4
			c1.3,0,2.5-0.5,3.5-1.4c0.9-0.8,1.5-2.1,1.4-3.3c0-1.3-0.5-2.5-1.4-3.3C211,0.5,209.8,0,208.5,0z"/>
		<path class="st0" d="M79,20.5l6.8,2c1.2-3.9,4.7-6.7,8.8-7c7.2-0.6,9.9,6.7,9.9,6.7l6.8-2c0,0-3.3-11.8-16.1-11.7S79,20.5,79,20.5
			z"/>
		<path class="st0" d="M79,31l6.8-2c1.2,3.9,4.7,6.7,8.8,7c7.2,0.6,9.9-6.7,9.9-6.7l6.8,2c0,0-3.3,11.7-16.1,11.7S79,31,79,31z"/>
		<path class="st0" d="M101.6,47.1v3.1c0,0,10.2,0.4,13.6-10l-3-1.1C112.2,39,111.2,46.8,101.6,47.1z"/>
		<path class="st0" d="M95.1,21.1c-1.3,0-2.6,0.4-3.6,1.3c-1.8,1.7-1.9,4.6-0.2,6.4c0.1,0.1,0.1,0.1,0.2,0.2c1,0.9,2.2,1.4,3.6,1.3
			c1.3,0,2.5-0.5,3.5-1.3c1.8-1.7,1.9-4.5,0.3-6.4c-0.1-0.1-0.2-0.2-0.3-0.3C97.6,21.5,96.4,21.1,95.1,21.1z"/>
	</g>
</g>
</svg>
